<?xml version="1.0" standalone="no"?><!DOCTYPE svg PUBLIC "-//W3C//DTD SVG 1.1//EN" "http://www.w3.org/Graphics/SVG/1.1/DTD/svg11.dtd"><svg t="1493023171506" class="icon" style="" viewBox="0 0 1024 1024" version="1.1" xmlns="http://www.w3.org/2000/svg" p-id="2554" xmlns:xlink="http://www.w3.org/1999/xlink" width="200" height="200"><defs><style type="text/css"></style></defs><path d="M816.240189 583.92103c-24.158213 0-43.833321-20.086477-43.833321-45.01831 0-24.791639 19.676132-44.878117 43.833321-44.878117 24.159236 0 43.830251 20.086477 43.830251 44.878117C860.07044 563.834552 840.400448 583.92103 816.240189 583.92103M590.784344 583.92103c-24.163329 0-43.833321-20.086477-43.833321-45.01831 0-24.791639 19.671015-44.878117 43.833321-44.878117 24.15412 0 43.825135 20.086477 43.825135 44.878117C634.609479 563.834552 614.938464 583.92103 590.784344 583.92103M1017.538845 647.868457c0-145.438417-127.686101-264.520559-289.518906-274.78739-7.573489-0.419556-15.162328-0.710175-22.747073-0.710175-172.507936 0-312.281329 123.363655-312.281329 275.497565 0 22.941502 3.235694 45.158503 9.269108 66.38392 33.56956 120.100332 156.483984 209.128995 303.011198 209.128995 49.862641 0 96.915283-10.265808 138.632407-28.64234l70.097498 48.578392c0 0 18.688641 13.245675 16.865109-12.256138l-19.807115-76.064396C976.386586 804.568359 1017.538845 730.488153 1017.538845 647.868457M227.097228 338.03897c-24.173562 0-43.831274-20.074198-43.831274-44.86686 0-24.926716 19.658735-45.013193 43.831274-45.013193 24.293289 0 43.826158 20.086477 43.826158 45.013193C270.924409 317.963749 251.390517 338.03897 227.097228 338.03897M503.120772 248.158916c24.173562 0 43.830251 20.086477 43.830251 45.013193 0 24.792663-19.656689 44.86686-43.830251 44.86686-24.295336 0-43.831274-20.074198-43.831274-44.86686C459.288474 268.245394 478.825436 248.158916 503.120772 248.158916M705.273888 349.428368c6.734378 0 13.331633 0.295735 19.946284 0.586354-25.711592-154.00042-176.020946-272.244474-357.650633-272.244474-199.61327 0-361.448122 142.895501-361.448122 318.956356 0 98.156554 50.29243 185.900967 129.241526 244.450455l-26.698059 102.137215c0 0-9.121751 33.901111 25.434276 18.672268l99.596346-68.960605c41.438785 14.675234 86.532819 22.801309 133.874033 22.801309 4.072759 0 7.998161-0.290619 11.932774-0.290619-5.760191-21.801539-8.846482-44.447305-8.846482-67.664076C370.655831 483.343333 520.81783 349.428368 705.273888 349.428368" p-id="2555" fill="#A9A9A9"></path></svg>